<?xml version="1.0" encoding="iso-8859-1"?>
<!-- Uploaded to: SVG Repo, www.svgrepo.com, Generator: SVG Repo Mixer Tools -->
<svg fill="rgb(17, 125, 187)" height="800px" width="300px" version="1.1" id="Layer_1" xmlns="http://www.w3.org/2000/svg" xmlns:xlink="http://www.w3.org/1999/xlink" 
	 viewBox="0 0 512 512" xml:space="preserve">
<g>
	<g>
		<path d="M511.185,268.063L472.46,73.587c-4.531-22.711-26.687-37.504-49.382-32.976L144.6,96.066
			c-4.597,0.915-7.58,5.383-6.665,9.978c0.915,4.595,5.378,7.579,9.978,6.665l278.479-55.456
			c13.524-2.697,26.723,6.118,29.422,19.65l1.491,7.487l-58.514,11.654c-4.597,0.915-7.58,5.383-6.665,9.978
			c0.803,4.036,4.348,6.83,8.313,6.83c0.549,0,1.108-0.053,1.666-0.165l58.514-11.654l10.851,54.489l-115.709,23.044
			l-128.426-31.073l140.503-27.982c4.597-0.915,7.58-5.383,6.665-9.978c-0.915-4.595-5.382-7.581-9.978-6.665L188.11,138.002
			l-92.448-22.367c-20.513-4.963-41.234,7.686-46.196,28.197L1.088,343.778c-2.404,9.935-0.795,20.212,4.531,28.938
			c5.326,8.726,13.731,14.854,23.666,17.258l335.363,81.142c3.009,0.729,6.05,1.088,9.07,1.088c6.949,0,13.786-1.906,19.868-5.619
			c8.726-5.326,14.854-13.731,17.258-23.666c1.102-4.555-1.697-9.14-6.252-10.242c-4.557-1.104-9.141,1.697-10.242,6.252
			c-2.763,11.415-14.298,18.454-25.713,15.694L33.275,373.481c-5.53-1.338-10.208-4.749-13.172-9.606
			c-2.964-4.857-3.86-10.577-2.522-16.107l24.662-101.931l91.128,22.048c0.671,0.163,1.342,0.24,2.002,0.24
			c3.827,0,7.3-2.608,8.241-6.492c1.102-4.555-1.697-9.14-6.252-10.242l-91.128-22.048L59.3,175.342l376.77,91.161l-13.066,54
			l-254.46-61.568c-4.556-1.103-9.14,1.697-10.242,6.252c-1.102,4.555,1.697,9.14,6.252,10.242l254.46,61.568l-17.508,72.363
			c-1.102,4.555,1.697,9.14,6.252,10.242c4.552,1.103,9.14-1.697,10.242-6.252l21.336-88.183l38.873-7.733
			C500.92,312.903,515.713,290.754,511.185,268.063z M442.729,238.982l-2.669,11.028l-376.77-91.16l2.669-11.029
			c2.762-11.415,14.297-18.453,25.713-15.694l335.363,81.142C438.45,216.03,445.491,227.565,442.729,238.982z M490.815,290.15
			c-3.712,5.555-9.367,9.333-15.921,10.641l-31.16,6.198l15.489-64.017c4.963-20.51-7.686-41.234-28.197-46.196l-36.037-8.719
			l79.797-15.893l19.756,99.216C495.849,277.931,494.526,284.597,490.815,290.15z"/>
	</g>
</g>
<g>
	<g>
		<path d="M155.705,303.64l-99.371-24.043c-4.557-1.103-9.141,1.697-10.242,6.252c-1.102,4.555,1.697,9.14,6.252,10.242
			l99.371,24.043c0.67,0.162,1.341,0.24,2.001,0.24c3.827,0,7.3-2.608,8.241-6.492C163.058,309.327,160.26,304.742,155.705,303.64z"
			/>
	</g>
</g>
<g>
	<g>
		<path d="M92.93,327.124l-44.384-10.739c-4.556-1.104-9.14,1.697-10.242,6.252c-1.102,4.555,1.697,9.14,6.252,10.242l44.383,10.739
			c0.671,0.163,1.342,0.24,2.002,0.24c3.827,0,7.3-2.608,8.241-6.492C100.284,332.811,97.485,328.226,92.93,327.124z"/>
	</g>
</g>
</svg>