<?xml version="1.0" encoding="iso-8859-1"?>
<!-- Uploaded to: SVG Repo, www.svgrepo.com, Generator: SVG Repo Mixer Tools -->
<svg fill="rgb(17, 125, 187)" height="800px" width="300px" version="1.1" id="Layer_1" xmlns="http://www.w3.org/2000/svg" xmlns:xlink="http://www.w3.org/1999/xlink" 
	 viewBox="0 0 512 512" xml:space="preserve">
<g>
	<g>
		<path d="M231.312,34.348h-17.174c-4.446,0-8.05,3.603-8.05,8.05c0,4.447,3.604,8.05,8.05,8.05h17.174
			c4.446,0,8.05-3.603,8.05-8.05C239.363,37.951,235.758,34.348,231.312,34.348z"/>
	</g>
</g>
<g>
	<g>
		<path d="M248.486,437.937h-51.522c-4.446,0-8.05,3.603-8.05,8.05v34.348c0,4.447,3.604,8.05,8.05,8.05h51.522
			c4.446,0,8.05-3.603,8.05-8.05v-34.348C256.537,441.54,252.932,437.937,248.486,437.937z M240.436,472.285h-35.421v-18.247h35.421
			V472.285z"/>
	</g>
</g>
<g>
	<g>
		<path d="M471.748,83.723h-92.847V40.252C378.901,18.056,360.845,0,338.65,0H108.948C86.752,0,68.696,18.056,68.696,40.252v88.553
			H40.252C18.056,128.805,0,146.861,0,169.057v126.658c0,22.195,18.056,40.252,40.252,40.252h28.444v135.782
			c0,22.195,18.056,40.252,40.252,40.252H338.65c22.195,0,40.252-18.056,40.252-40.252V342.407h92.847
			c22.195,0,40.252-18.056,40.252-40.252v-178.18C512,101.78,493.944,83.723,471.748,83.723z M362.801,471.748
			c0,13.316-10.834,24.151-24.151,24.151H108.948c-13.317,0-24.151-10.835-24.151-24.151v-43.472h278.004V471.748z M362.801,412.176
			H84.797v-76.21h63.061l42.667,56.889c4.504,6.004,14.491,2.709,14.491-4.83V272.103c0-4.447-3.604-8.05-8.05-8.05
			s-8.05,3.603-8.05,8.05v91.771l-30.591-40.788c-1.521-2.028-3.906-3.22-6.44-3.22H40.252c-13.317,0-24.151-10.835-24.151-24.151
			V169.057c0-13.316,10.834-24.151,24.151-24.151h124.512c13.317,0,24.151,10.835,24.151,24.151v68.701
			c0,4.447,3.604,8.05,8.05,8.05s8.05-3.603,8.05-8.05v-68.701c0-22.195-18.056-40.252-40.252-40.252H84.797V77.283h215.212
			c4.446,0,8.05-3.603,8.05-8.05c0-4.447-3.604-8.05-8.05-8.05H84.797V40.252c0-13.316,10.834-24.151,24.151-24.151H338.65
			c13.317,0,24.151,10.835,24.151,24.151v20.931H338.65c-4.446,0-8.05,3.603-8.05,8.05c0,4.447,3.604,8.05,8.05,8.05h24.151v6.44
			h-84.26c-22.195,0-40.252,18.056-40.252,40.252v264.05c0,7.029,8.847,10.679,13.795,5.641l50.326-51.259h60.39V412.176z
			 M495.899,302.155c0,13.316-10.834,24.151-24.151,24.151H299.033c-2.161,0-4.23,0.869-5.745,2.41l-38.898,39.619v-244.36
			c0-13.316,10.834-24.151,24.151-24.151h193.208c13.317,0,24.151,10.835,24.151,24.151V302.155z"/>
	</g>
</g>
<g>
	<g>
		<g>
			<path d="M411.489,134.697c-0.021,0.021-0.045,0.048-0.066,0.071c0.039-0.039,0.075-0.076,0.112-0.113
				C411.52,134.67,411.504,134.682,411.489,134.697z"/>
			<path d="M435.254,178.18h-31.198c13.573-7.194,27.693-15.169,31.719-19.195c4.764-4.764,7.388-11.099,7.388-17.836
				c0-6.738-2.624-13.073-7.388-17.835c-4.764-4.765-11.099-7.389-17.836-7.389c-6.738,0-13.073,2.623-17.836,7.388
				c-5.156,5.156-16.785,26.862-24.959,42.776c-8.174-15.914-19.803-37.62-24.958-42.775c-4.765-4.765-11.099-7.389-17.837-7.389
				s-13.073,2.623-17.836,7.388c-4.764,4.764-7.388,11.099-7.388,17.836s2.624,13.073,7.388,17.835
				c4.026,4.027,18.148,12.003,31.72,19.196h-31.197c-4.446,0-8.05,3.603-8.05,8.05v109.624c0,4.447,3.604,8.05,8.05,8.05h120.218
				c4.446,0,8.05-3.603,8.05-8.05V186.231C443.304,181.784,439.7,178.18,435.254,178.18z M325.898,147.6
				c-1.724-1.724-2.673-4.013-2.673-6.451c0-7.903,9.982-12.044,15.575-6.452c2.438,2.453,9.833,15.529,17.843,30.746
				C341.427,157.434,328.351,150.037,325.898,147.6z M367.094,287.804h-44.008v-57.168h44.008V287.804z M367.094,214.536h-44.008
				v-20.255h44.008V214.536z M411.423,134.768c-0.584,0.587-1.311,1.315,0.066-0.071c0.685-0.685,0.437-0.435,0.046-0.042
				c8.312-8.217,21.157,4.642,12.856,12.945c-2.453,2.438-15.526,9.832-30.745,17.842
				C401.587,150.355,408.922,137.379,411.423,134.768z M427.203,287.804h-44.008v-57.168h44.008V287.804z M427.203,214.536h-44.008
				v-20.255h44.008V214.536z"/>
		</g>
	</g>
</g>
<g>
	<g>
		<path d="M153.911,175.756c-14.165-10.021-32.704-10.261-51.404-0.824c-18.701-9.436-37.24-9.197-51.404,0.824
			c-14.707,10.403-22.248,29.875-18.765,48.453c6.948,37.056,63.034,78.411,65.418,80.153c1.416,1.034,3.083,1.55,4.751,1.55
			s3.335-0.516,4.75-1.55c2.384-1.742,58.47-43.096,65.418-80.153C176.159,205.631,168.618,186.16,153.911,175.756z M156.85,221.242
			c-4.345,23.173-37.21,53.056-54.346,66.51c-17.136-13.441-49.988-43.298-54.341-66.51c-2.309-12.313,2.724-25.612,12.238-32.342
			c4.517-3.196,9.762-4.787,15.505-4.787c6.933,0,14.593,2.321,22.567,6.937c2.495,1.445,5.572,1.445,8.068,0
			c14.58-8.441,28.1-9.203,38.072-2.15C154.127,195.63,159.159,208.929,156.85,221.242z"/>
	</g>
</g>
</svg>